<svg width="60" height="82" viewBox="0 0 60 82" fill="none" xmlns="http://www.w3.org/2000/svg">
<g clip-path="url(#clip0_2025_32)">
<path d="M0 6.24329L14.8448 0L13.9135 32.1175C13.9135 32.1175 17.9968 28.1626 28.6389 27.2616C37.4901 26.5121 47.9491 31.5115 47.9491 31.5115L45.0677 42.3236C45.0677 42.3236 34.6882 35.2909 23.6959 36.5986C12.2499 37.9621 6.92491 47.618 6.92491 47.618L0 6.24329Z" fill="#474747"/>
<path d="M52.9954 52.5298C52.9954 52.5298 54.3884 70.7334 41.8121 77.6145C33.3191 82.2631 22.7169 80.4452 18.9678 74.7999C16.5561 72.049 15.0835 68.445 15.0835 64.4901C15.0835 55.8388 22.0801 48.83 30.7163 48.83C37.7288 48.83 43.6587 53.4547 45.6407 59.8176C46.1024 60.8063 46.3173 61.4761 46.3173 61.4761L59.992 34.0311L50.7667 27.8915L45.5691 48.3357C45.5691 48.3357 30.6208 33.4251 14.59 45.5609C6.6622 51.565 6.31993 61.5797 9.00234 69.1466C11.3425 75.7487 18.546 79.6239 23.5526 80.9874C29.8885 82.7176 42.5922 83.6107 52.7965 71.762C63.948 58.8129 57.6996 43.6951 57.6996 43.6951L52.9795 52.5298H52.9954Z" fill="#474747"/>
</g>
<defs>
<clipPath id="clip0_2025_32">
<rect width="60" height="82" fill="white"/>
</clipPath>
</defs>
</svg>
