<?xml version="1.0" encoding="UTF-8"?><svg id="a" xmlns="http://www.w3.org/2000/svg" xmlns:xlink="http://www.w3.org/1999/xlink" viewBox="0 0 99.94 135.76"><defs><style>.c{fill:url(#b);}.d{fill:#c7da38;}.e{fill:#fff;}</style><linearGradient id="b" x1="12.96" y1="90.4" x2="98.79" y2="90.4" gradientUnits="userSpaceOnUse"><stop offset="0" stop-color="#43a592"/><stop offset=".61" stop-color="#c7da38"/></linearGradient></defs><path class="d" d="M.99,12.17L26.59,1.36l-1.47,50.9c2.85-1.97,9.79-5.72,22.46-6.79.98-.08,2-.12,3.05-.12,13.43,0,27.61,6.73,28.2,7.02l.66.32-5.1,19.23-1.04-.71c-.14-.09-13.82-9.27-29.13-9.27-1.47,0-2.93.08-4.33.25-17.55,2.09-25.99,17.03-26.07,17.18l-1.24,2.24L.99,12.17Z"/><path class="e" d="M25.66,2.72l-1.49,51.41s6.5-6.33,23.48-7.77c.98-.08,1.97-.12,2.97-.12,13.38,0,27.82,6.93,27.82,6.93l-4.59,17.3s-13.85-9.43-29.63-9.43c-1.47,0-2.95.08-4.44.26-18.24,2.18-26.75,17.63-26.75,17.63L1.99,12.71,25.66,2.72M27.52,0l-2.55,1.08L1.3,11.07l-1.3.55.23,1.39,11.04,66.22.84,5.06,2.47-4.5c.08-.14,8.32-14.69,25.4-16.72,1.37-.16,2.79-.25,4.23-.25,15.03,0,28.5,9.03,28.63,9.12l2.08,1.41.64-2.43,4.59-17.3.38-1.42-1.33-.64c-.6-.29-14.96-7.11-28.59-7.11-1.07,0-2.12.04-3.12.13-11.07.94-17.88,3.91-21.44,6.03l1.38-47.84.08-2.77h0Z"/><path class="c" d="M51.78,134.87c-5.31,0-9.71-.9-12.46-1.65-8.64-2.36-20.06-8.89-23.81-19.52-6.51-18.46.49-32.13,9.22-38.77,6.81-5.17,14.12-7.8,21.74-7.8,13.67,0,24.3,8.29,27.69,11.28l8.23-32.5,16.41,10.96-23.13,46.61-.67-2.1s-.34-1.05-1.04-2.55l-.03-.05-.02-.06c-3.15-10.15-12.37-16.96-22.94-16.96-13.25,0-24.03,10.85-24.03,24.18,0,5.84,2.12,11.5,5.97,15.91l.04.04.03.05c3.4,5.15,10.73,8.34,19.12,8.34,5.64,0,11.21-1.42,16.12-4.12,19.3-10.6,17.39-39.02,17.37-39.3l-.02-.26,8.54-16.05.72,1.75c.1.25,9.96,24.96-7.97,45.85-11.84,13.8-25.61,16.7-35.08,16.7Z"/><path class="e" d="M82.94,47.36l14.71,9.83-21.8,43.94s-.34-1.08-1.08-2.66c-3.16-10.19-12.62-17.59-23.79-17.59-13.77,0-24.92,11.22-24.92,25.07,0,6.33,2.35,12.09,6.19,16.5,3.64,5.51,11.34,8.74,19.86,8.74,5.46,0,11.26-1.33,16.55-4.23,20.05-11.01,17.83-40.15,17.83-40.15l7.53-14.15s9.96,24.21-7.82,44.93c-11.11,12.95-24.08,16.39-34.4,16.39-4.8,0-9.02-.74-12.23-1.62-7.99-2.19-19.48-8.39-23.2-18.95-4.27-12.12-3.73-28.15,8.92-37.76,7.39-5.62,14.64-7.62,21.21-7.62,16.14,0,28.18,12.06,28.18,12.06l8.28-32.73M81.83,44.48l-.62,2.44-7.57,29.89c-4.34-3.57-14.47-10.57-27.18-10.57-7.82,0-15.32,2.68-22.28,7.98-6.14,4.67-10.11,11.25-11.48,19.05-1.15,6.52-.45,13.88,1.96,20.72,3.86,10.95,15.56,17.66,24.41,20.08,2.81.77,7.29,1.68,12.7,1.68,9.65,0,23.69-2.95,35.75-17.01,9.56-11.14,11.26-23.25,11.01-31.45-.27-8.86-2.78-15.06-2.89-15.32l-1.44-3.5-1.78,3.34-.9,1.69,7.71-15.53.7-1.4-1.3-.87-14.71-9.83-2.1-1.4h0ZM52.1,129.41c-8.1,0-15.14-3.04-18.38-7.94l-.07-.1-.08-.09c-3.71-4.26-5.75-9.7-5.75-15.33,0-12.84,10.38-23.29,23.14-23.29,10.18,0,19.06,6.57,22.09,16.34l.04.11.05.11c.67,1.44.99,2.44.99,2.45l1.34,4.19,1.95-3.93,7.28-14.68c.15,3.06.8,28.42-16.93,38.15-4.78,2.62-10.21,4.01-15.7,4.01h0Z"/></svg>