<?xml version="1.0" encoding="UTF-8"?><svg id="a" xmlns="http://www.w3.org/2000/svg" xmlns:xlink="http://www.w3.org/1999/xlink" viewBox="0 0 102.89 138.88"><defs><style>.c{fill:url(#b);}.d{fill:#c5d937;}.e{fill:#fff;}</style><linearGradient id="b" x1="13.71" y1="92.1" x2="100.96" y2="92.1" gradientUnits="userSpaceOnUse"><stop offset="0" stop-color="#42a390"/><stop offset=".61" stop-color="#c5d937"/></linearGradient></defs><path class="e" d="M93.91,75.93l-8.03,42.5s-20.21,19.52-43.34,14.68c-23.12-4.85-15.39-32.05-15.39-32.05l-14.89.83v-16.27l4.53-18.55,34.06-7.89,43.06,16.75Z"/><path class="d" d="M1.67,13.66L28.59,2.29l-1.47,50.7c3.39-2.1,10.26-5.28,21.77-6.25,1-.08,2.04-.13,3.1-.13,13.57,0,27.87,6.79,28.48,7.08l1.12.54-5.45,20.55-1.75-1.19c-.13-.09-13.68-9.17-28.8-9.17-1.45,0-2.88.08-4.26.25-17.23,2.06-25.54,16.73-25.62,16.88l-2.08,3.77L1.67,13.66Z"/><path class="e" d="M27.03,4.58l-1.49,51.42s6.51-6.34,23.48-7.77c.98-.08,1.97-.12,2.97-.12,13.38,0,27.83,6.93,27.83,6.93l-4.59,17.31s-13.86-9.43-29.64-9.43c-1.47,0-2.95.08-4.44.26-18.25,2.18-26.75,17.64-26.75,17.64L3.35,14.58,27.03,4.58M30.16,0l-4.3,1.82L2.18,11.81l-2.18.92.39,2.34,11.05,66.24,1.42,8.53,4.17-7.58c.07-.13,8.05-14.15,24.48-16.11,1.32-.16,2.7-.24,4.09-.24,14.63,0,27.83,8.82,27.96,8.91l3.5,2.37,1.09-4.08,4.59-17.31.64-2.4-2.24-1.07c-.61-.3-15.22-7.23-29.13-7.23-1.1,0-2.19.04-3.23.13-9.55.81-16.05,3.14-20.07,5.17l1.32-45.74.13-4.67h0Z"/><path class="c" d="M53.16,137.38c-5.38,0-9.84-.91-12.63-1.67-8.79-2.4-20.4-9.06-24.23-19.91-6.62-18.78.52-32.7,9.42-39.46,6.92-5.26,14.36-7.92,22.12-7.92,12.98,0,23.25,7.35,27.35,10.79l8.2-32.39,17.58,11.74-24.04,48.45-1.13-3.53s-.33-1.02-1.01-2.48l-.04-.09-.03-.1c-3.07-9.89-12.06-16.54-22.37-16.54-12.92,0-23.43,10.58-23.43,23.58,0,5.7,2.07,11.21,5.82,15.52l.07.08.06.08c3.29,4.98,10.42,8.07,18.62,8.07,5.54,0,11.01-1.4,15.84-4.05,18.99-10.42,17.08-38.45,17.06-38.74l-.03-.43,9.23-17.35,1.21,2.95c.1.25,10.1,25.31-8.08,46.49-12,13.98-25.96,16.92-35.55,16.92Z"/><path class="e" d="M84.32,49.24l14.71,9.83-21.81,43.95s-.34-1.08-1.08-2.66c-3.17-10.19-12.62-17.59-23.8-17.59-13.77,0-24.93,11.23-24.93,25.08,0,6.33,2.35,12.09,6.19,16.5,3.64,5.51,11.34,8.74,19.87,8.74,5.46,0,11.27-1.33,16.56-4.23,20.05-11.01,17.84-40.16,17.84-40.16l7.53-14.15s9.96,24.22-7.83,44.95c-11.12,12.95-24.08,16.39-34.41,16.39-4.8,0-9.03-.74-12.23-1.62-7.99-2.19-19.48-8.39-23.21-18.96-4.28-12.12-3.73-28.16,8.92-37.77,7.39-5.62,14.64-7.62,21.21-7.62,16.15,0,28.19,12.07,28.19,12.07l8.29-32.74M82.46,44.38l-1.04,4.12-7.11,28.08c-5.06-3.84-14.68-9.67-26.46-9.67-8.1,0-15.84,2.77-23.03,8.23-6.39,4.86-10.52,11.71-11.94,19.81-1.18,6.73-.47,14.31,2.01,21.34,4.02,11.39,16.11,18.36,25.25,20.86,2.88.79,7.48,1.73,13.02,1.73,9.91,0,24.32-3.03,36.69-17.44,18.77-21.87,8.76-46.98,8.32-48.04l-1.31-3.19,4.87-9.8,1.17-2.36-2.19-1.47-14.71-9.83-3.53-2.36h0ZM53.47,130.09c-7.7,0-14.35-2.83-17.37-7.4l-.11-.17-.13-.15c-3.52-4.03-5.45-9.2-5.45-14.53,0-12.17,9.84-22.08,21.93-22.08,9.65,0,18.06,6.22,20.94,15.48l.06.19.09.18c.63,1.36.94,2.3.94,2.31l2.26,7.03,3.28-6.61,4.94-9.95c-.15,2.67-.51,6.09-1.34,9.73-2.41,10.54-7.43,17.97-14.92,22.09-4.6,2.53-9.83,3.86-15.11,3.86h0Z"/></svg>