<svg width="152" height="209" viewBox="0 0 152 209" fill="none" xmlns="http://www.w3.org/2000/svg">
<g clip-path="url(#clip0_2033_1020)">
<path d="M0 15.9135L37.6148 0L35.2527 81.8585C35.2527 81.8585 45.586 71.7714 72.5556 69.487C94.9793 67.5812 121.484 80.3313 121.484 80.3313L114.188 107.878C114.188 107.878 87.8995 89.95 60.0449 93.2803C31.057 96.7454 17.5468 121.36 17.5468 121.36L0 15.9135Z" fill="white"/>
<path d="M134.256 133.886C134.256 133.886 137.777 180.291 105.924 197.816C84.3978 209.655 57.5556 205.028 48.0564 190.635C41.9506 183.615 38.2261 174.439 38.2261 164.365C38.2261 142.324 55.9575 124.453 77.8337 124.453C95.5906 124.453 110.616 136.234 115.646 152.456C116.811 154.971 117.359 156.691 117.359 156.691L152.006 86.7352L128.634 71.0848L115.468 123.202C115.468 123.202 77.5981 85.1888 36.9846 116.118C16.8975 131.421 16.0252 156.947 22.8185 176.243C28.7396 193.067 46.9931 202.943 59.6884 206.42C75.7454 210.822 107.923 213.1 133.785 182.903C162.034 149.908 146.219 111.356 146.219 111.356L134.256 133.886Z" fill="white"/>
</g>
<defs>
<clipPath id="clip0_2033_1020">
<rect width="152" height="209" fill="white"/>
</clipPath>
</defs>
</svg>
