<svg width="44" height="44" viewBox="0 0 44 44" fill="none" xmlns="http://www.w3.org/2000/svg">
<path d="M22 0C34.0999 0 44 9.9179 44 22.1328C44.0117 27.4022 42.1471 32.5027 38.7422 36.5127C35.3372 40.5227 30.6157 43.178 25.4316 44V28.5381H30.5576L31.5479 22.1328H25.4316V17.9795C25.4318 16.2348 26.2902 14.5344 29.0176 14.5342H31.79V9.07812C31.7787 9.07622 29.2763 8.6582 26.8838 8.6582C21.846 8.65832 18.5684 11.7069 18.5684 17.251V22.1328H12.9805V28.5381H18.5684V44C8.05252 42.3434 0.000107825 33.1769 0 22.1328C0 9.91795 9.90016 6.82668e-05 22 0Z" fill="#828282"/>
</svg>
