<svg width="44" height="44" viewBox="0 0 44 44" fill="none" xmlns="http://www.w3.org/2000/svg">
<path d="M39.1113 0C40.4079 5.75811e-05 41.6516 0.514847 42.5684 1.43164C43.4852 2.34843 43.9999 3.59214 44 4.88867V39.1113C43.9999 40.4079 43.4852 41.6516 42.5684 42.5684C41.6516 43.4852 40.4079 43.9999 39.1113 44H4.88867C3.59214 43.9999 2.34843 43.4852 1.43164 42.5684C0.514847 41.6516 5.75811e-05 40.4079 0 39.1113V4.88867C5.74548e-05 3.59214 0.514847 2.34843 1.43164 1.43164C2.34843 0.514847 3.59214 5.74548e-05 4.88867 0H39.1113ZM6.11133 37.8887H12.8818V17.4287H6.11133V37.8887ZM29.9199 16.9648C27.8422 16.9649 25.4223 18.2359 24.249 20.1426V17.4287H17.4287V37.8887H24.249V25.8379C24.249 23.9557 25.7643 22.4161 27.6465 22.416C28.5541 22.416 29.4246 22.7762 30.0664 23.418C30.7082 24.0598 31.0693 24.9303 31.0693 25.8379V37.8887H37.8887V24.9336C37.8887 22.8202 37.0491 20.7933 35.5547 19.2988C34.0602 17.8044 32.0334 16.9648 29.9199 16.9648ZM9.48438 5.35352C8.38876 5.35353 7.33819 5.78876 6.56348 6.56348C5.78876 7.33819 5.35353 8.38876 5.35352 9.48438C5.35352 11.7577 7.21107 13.5908 9.48438 13.5908C10.5735 13.5908 11.6185 13.1588 12.3887 12.3887C13.1588 11.6185 13.5908 10.5735 13.5908 9.48438C13.5908 7.21107 11.7577 5.35352 9.48438 5.35352Z" fill="#828282"/>
</svg>
